<svg xmlns="http://www.w3.org/2000/svg" width="24" height="24" viewBox="0 0 24 24">
    <g color="#12161A" fill="currentColor" fill-rule="nonzero">
        <path d="M16.04 3.86c.976.045 1.505.208 1.858.344.467.182.8.399 1.15.748.35.35.566.683.748 1.15.137.353.3.882.344 1.857.048 1.055.058 1.37.058 4.041 0 2.67-.01 2.986-.058 4.04-.045.976-.207 1.505-.344 1.858-.182.466-.398.8-.748 1.15-.35.35-.683.566-1.15.748-.353.136-.882.3-1.857.344-1.055.048-1.37.058-4.041.058-2.67 0-2.986-.01-4.04-.058-.976-.045-1.505-.208-1.858-.344a3.1 3.1 0 0 1-1.15-.748 3.1 3.1 0 0 1-.748-1.15c-.136-.353-.3-.882-.344-1.857-.048-1.055-.058-1.37-.058-4.041 0-2.67.01-2.986.058-4.04.045-.976.208-1.505.344-1.858.182-.467.399-.8.748-1.15a3.1 3.1 0 0 1 1.15-.748c.353-.136.882-.3 1.857-.344 1.055-.048 1.37-.058 4.041-.058 2.67 0 2.986.01 4.04.058zm-8.163-1.8c-1.064.049-1.791.218-2.427.465a4.901 4.901 0 0 0-1.772 1.153A4.901 4.901 0 0 0 2.525 5.45c-.247.636-.416 1.363-.465 2.427C2.011 8.944 2 9.284 2 12s.011 3.056.06 4.123c.049 1.064.218 1.791.465 2.427a4.902 4.902 0 0 0 1.153 1.772 4.901 4.901 0 0 0 1.772 1.153c.636.247 1.363.416 2.427.465 1.067.048 1.407.06 4.123.06s3.056-.012 4.123-.06c1.064-.049 1.791-.218 2.427-.465a4.902 4.902 0 0 0 1.772-1.153 4.903 4.903 0 0 0 1.153-1.772c.247-.636.416-1.363.465-2.427.049-1.067.06-1.407.06-4.123s-.011-3.056-.06-4.123c-.049-1.064-.218-1.791-.465-2.427a4.902 4.902 0 0 0-1.153-1.772 4.902 4.902 0 0 0-1.772-1.153c-.636-.247-1.363-.416-2.427-.465C15.056 2.011 14.716 2 12 2s-3.056.011-4.123.06z"/>
        <path d="M12 7a5 5 0 1 0 0 10 5 5 0 0 0 0-10m0 8.246a3.246 3.246 0 1 1 0-6.492 3.246 3.246 0 0 1 0 6.492M18.667 7.417a1.25 1.25 0 1 1-2.5 0 1.25 1.25 0 0 1 2.5 0"/>
    </g>
</svg>
