<svg version="1.1" id="Layer_1" xmlns="http://www.w3.org/2000/svg" x="0" y="0" viewBox="0 0 24 24" xml:space="preserve"><style>.st0{fill:#fff}</style><path class="st0" d="M16 3.9c1 0 1.5.2 1.9.3.5.2.8.4 1.1.8.4.3.6.7.7 1.2.2.3.4.8.4 1.8 0 1.1.1 1.4.1 4 0 2.7 0 3-.1 4 0 1-.2 1.5-.3 1.9-.2.5-.4.8-.7 1.1-.4.4-.7.6-1.1.7-.4.1-.9.3-1.9.3-1.1 0-1.4.1-4 .1-2.7 0-3 0-4-.1-1 0-1.5-.2-1.9-.3-.5-.1-.9-.3-1.2-.7-.3-.3-.6-.7-.7-1.1-.2-.4-.4-.9-.4-1.9 0-1.1-.1-1.4-.1-4 0-2.7 0-3 .1-4 0-1 .2-1.5.3-1.9.2-.5.4-.8.8-1.1.3-.3.7-.6 1.2-.7.3-.2.8-.4 1.8-.4 1.1 0 1.4-.1 4-.1 2.7 0 3 0 4 .1zM7.9 2.1c-1.1 0-1.8.2-2.4.5-.7.2-1.3.6-1.8 1.1-.5.5-.9 1.1-1.2 1.7-.2.7-.4 1.4-.4 2.5C2 8.9 2 9.3 2 12s0 3.1.1 4.1c0 1.1.2 1.8.5 2.4.3.7.6 1.3 1.2 1.8.5.5 1.1.9 1.8 1.2.6.2 1.4.4 2.4.5h4c2.7 0 3.1 0 4.1-.1 1.1 0 1.8-.2 2.4-.5.7-.3 1.3-.6 1.8-1.2.5-.5.9-1.1 1.2-1.8.2-.6.4-1.4.5-2.4 0-1.1.1-1.4.1-4.1s0-3.1-.1-4.1c0-1.1-.2-1.8-.5-2.4-.3-.7-.6-1.3-1.2-1.8-.5-.5-1.1-.9-1.8-1.2-.6-.2-1.4-.4-2.4-.5-1 .1-1.4.1-4.1.1s-3.1 0-4.1.1z"/><path class="st0" d="M12 7c-2.8 0-5 2.2-5 5s2.2 5 5 5 5-2.2 5-5-2.2-5-5-5m0 8.2c-1.8 0-3.2-1.5-3.2-3.2s1.5-3.2 3.2-3.2 3.2 1.5 3.2 3.2-1.4 3.2-3.2 3.2m6.7-7.8c0 .7-.6 1.3-1.3 1.3s-1.3-.6-1.3-1.3.6-1.3 1.3-1.3 1.3.6 1.3 1.3"/></svg>