<svg xmlns="http://www.w3.org/2000/svg" width="24" height="24" viewBox="0 0 24 24">
    <path color="#12161A" fill="currentColor" fill-rule="nonzero" d="M20.66 6.98a9.958 9.958 0 0 0-3.64-3.639C15.49 2.447 13.816 2 12 2c-1.814 0-3.487.447-5.019 1.341a9.954 9.954 0 0 0-3.64 3.64C2.447 8.512 2 10.185 2 12c0 2.022.551 3.858 1.654 5.507 1.102 1.65 2.548 2.87 4.336 3.66-.035-.93.022-1.698.17-2.306l1.288-5.443c-.217-.425-.325-.954-.325-1.588 0-.738.186-1.354.56-1.85.373-.494.829-.741 1.367-.741.434 0 .768.143 1.002.43.235.286.352.646.352 1.08 0 .27-.05.597-.15.983-.1.387-.23.834-.39 1.341-.161.508-.276.914-.346 1.218-.121.53-.021.983.3 1.36.32.378.746.567 1.276.567.929 0 1.69-.516 2.285-1.55.595-1.032.892-2.287.892-3.762 0-1.138-.367-2.062-1.1-2.774-.734-.712-1.756-1.068-3.067-1.068-1.467 0-2.654.471-3.561 1.413-.907.942-1.361 2.068-1.361 3.379 0 .781.221 1.437.664 1.966.148.174.195.36.143.56a7.472 7.472 0 0 0-.104.39c-.052.209-.087.344-.104.404-.07.278-.234.365-.495.26-.668-.277-1.176-.759-1.523-1.445-.348-.685-.521-1.48-.521-2.382 0-.582.093-1.164.28-1.745a5.951 5.951 0 0 1 .872-1.686 6.852 6.852 0 0 1 1.42-1.44c.55-.416 1.221-.75 2.011-1.002a8.36 8.36 0 0 1 2.553-.377c1.233 0 2.34.273 3.32.82.981.547 1.73 1.254 2.246 2.122.517.868.775 1.797.775 2.787 0 1.302-.226 2.474-.677 3.516-.451 1.041-1.09 1.86-1.914 2.454-.825.595-1.762.892-2.813.892a3.09 3.09 0 0 1-1.485-.371c-.46-.248-.777-.54-.95-.879-.39 1.536-.625 2.452-.703 2.747-.165.616-.504 1.328-1.016 2.136A9.856 9.856 0 0 0 12 22c1.814 0 3.487-.447 5.02-1.341a9.953 9.953 0 0 0 3.639-3.64C21.553 15.488 22 13.815 22 12c0-1.813-.446-3.487-1.34-5.019z"/>
</svg>
