<svg xmlns="http://www.w3.org/2000/svg" viewBox="0 0 24 24"><path d="M20.7 7c-.9-1.5-2.1-2.8-3.6-3.6C15.5 2.4 13.8 2 12 2c-1.8 0-3.5.4-5 1.3S4.2 5.5 3.3 7C2.4 8.5 2 10.2 2 12c0 2 .6 3.9 1.7 5.5s2.5 2.9 4.3 3.7c0-.9 0-1.7.2-2.3l1.3-5.4c-.2-.4-.3-1-.3-1.6 0-.7.2-1.4.6-1.9.4-.5.8-.7 1.4-.7.4 0 .8.1 1 .4.2.3.4.6.4 1.1 0 .3-.1.6-.1 1-.1.4-.2.8-.4 1.3s-.3.9-.3 1.2c-.1.5 0 1 .3 1.4.3.4.7.6 1.3.6.9 0 1.7-.5 2.3-1.6.6-1 .9-2.3.9-3.8 0-1.1-.4-2.1-1.1-2.8-.7-.7-1.8-1.1-3.1-1.1-1.5 0-2.7.5-3.6 1.4s-1.4 2.1-1.4 3.4c0 .8.2 1.4.7 2-.1.2-.1.4-.1.6 0 .1-.1.3-.1.4-.1.2-.1.3-.1.4-.1.3-.2.4-.5.3-.7-.3-1.2-.8-1.5-1.4-.3-.7-.5-1.5-.5-2.4 0-.6.1-1.2.3-1.7.1-.7.4-1.3.8-1.8s.9-1 1.4-1.4c.6-.4 1.2-.8 2-1 .8-.3 1.7-.4 2.6-.4 1.2 0 2.3.3 3.3.8s1.7 1.3 2.2 2.1c.5.9.8 1.8.8 2.8 0 1.3-.2 2.5-.7 3.5-.5 1-1.1 1.9-1.9 2.5-.8.6-1.8.9-2.8.9-.5 0-1-.1-1.5-.4-.5-.2-.8-.5-.9-.9-.4 1.5-.6 2.5-.7 2.7-.2.6-.5 1.3-1 2.1.9.4 1.8.5 2.8.5 1.8 0 3.5-.4 5-1.3s2.8-2.1 3.6-3.6c.9-1.5 1.3-3.2 1.3-5 .1-1.9-.3-3.6-1.2-5.1z" fill="#fff"/></svg>