<svg xmlns="http://www.w3.org/2000/svg" width="24" height="24"><path fill="currentColor" fill-rule="nonzero" d="M5.387 1h1.296l.889 3.393L8.396 1h1.309L8.207 6.046V9.49H6.918V6.046L5.387 1zm5.934 2.175c-1.007 0-1.675.679-1.675 1.682v3.07c0 1.104.567 1.679 1.675 1.679.92 0 1.644-.626 1.644-1.679v-3.07c0-.98-.717-1.682-1.644-1.682zm.478 4.7c0 .341-.17.592-.479.592-.315 0-.498-.263-.498-.592V4.961c0-.343.155-.597.476-.597.351 0 .501.247.501.597v2.914zm4.256-4.647V7.98c-.14.178-.45.47-.672.47-.244 0-.304-.17-.304-.422v-4.8h-1.143v5.234c0 .618.185 1.118.798 1.118.346 0 .826-.183 1.321-.782v.691h1.143V3.228h-1.143zm1.983 12.703c-.403 0-.487.288-.487.7v.603h.962v-.605c.001-.403-.082-.698-.475-.698zm-4.233.036c-.075.04-.15.1-.225.182v3.717a.97.97 0 00.259.21c.177.091.436.098.557-.062.063-.084.094-.22.094-.411v-3.08c0-.2-.038-.353-.116-.458-.132-.177-.378-.196-.569-.098zm4.345-4.762c-2.344-.162-9.96-.162-12.3 0-2.532.176-2.831 1.735-2.85 5.837.019 4.094.315 5.66 2.85 5.836 2.34.162 9.956.162 12.3 0 2.532-.176 2.831-1.735 2.85-5.836-.019-4.095-.315-5.66-2.85-5.837zM7.058 21.001H5.831v-6.912H4.562v-1.173h3.764v1.173H7.057v6.912h.001zm4.361 0H10.33v-.658c-.2.242-.409.428-.626.554-.587.343-1.392.335-1.392-.875v-4.985H9.4v4.572c0 .24.057.402.29.402.212 0 .507-.278.64-.447v-4.527h1.089V21zm4.192-1.236c0 .738-.271 1.312-.996 1.312-.398 0-.73-.149-1.034-.535v.459h-1.099v-8.085h1.1v2.603c.245-.305.579-.557.968-.557.797 0 1.062.686 1.062 1.495v3.308h-.001zm4.024-1.606h-2.083v1.126c0 .447.038.834.475.834.46 0 .487-.315.487-.834v-.415h1.12v.449c0 1.148-.483 1.845-1.631 1.845-1.04 0-1.571-.772-1.571-1.845V16.64c0-1.035.671-1.754 1.653-1.754 1.045 0 1.549.676 1.549 1.754v1.518z" color="#000"/></svg>