<svg xmlns="http://www.w3.org/2000/svg" viewBox="0 0 24 24"><path d="M5.4 1h1.3l.9 3.4.8-3.4h1.3L8.2 6v3.4H6.9V6L5.4 1zm5.9 2.2c-1 0-1.7.7-1.7 1.7V8c0 1.1.6 1.7 1.7 1.7.9-.1 1.7-.7 1.7-1.8v-3c0-1-.8-1.7-1.7-1.7zm.5 4.7c0 .3-.2.6-.5.6s-.5-.3-.5-.6V5c0-.3.2-.6.5-.6.4 0 .5.2.5.6v2.9zm4.3-4.7V8c-.1.2-.4.5-.7.5-.2 0-.3-.2-.3-.4V3.2H14v5.2c0 .6.2 1.1.8 1.1.3 0 .8-.2 1.3-.8v.7h1.1V3.2h-1.1zM18 15.9c-.4 0-.5.3-.5.7v.6h1v-.6c0-.4-.1-.7-.5-.7zm-4.2.1c-.1 0-.1.1-.2.2v3.7c.1.1.2.2.3.2.2.1.4.1.6-.1.1-.1.1-.2.1-.4v-3.1c0-.2 0-.4-.1-.5-.3-.1-.5-.1-.7 0zm4.3-4.8c-2.3-.2-10-.2-12.3 0C3.3 11.4 3 12.9 3 17s.3 5.7 2.8 5.8c2.3.2 10 .2 12.3 0 2.5-.2 2.8-1.7 2.9-5.8 0-4.1-.3-5.6-2.9-5.8zM7.1 21H5.8v-6.9H4.6v-1.2h3.8v1.2H7.1V21zm4.3 0h-1.1v-.7l-.6.6c-.6.3-1.4.3-1.4-.9v-5h1.1v4.6c0 .2.1.4.3.4.2 0 .5-.3.6-.4V15h1.1v6zm4.2-1.2c0 .7-.3 1.3-1 1.3-.4 0-.7-.1-1-.5v.4h-1.1v-8.1h1.1v2.6c.2-.3.6-.6 1-.6.8 0 1.1.7 1.1 1.5l-.1 3.4zm4-1.6h-2.1v1.1c0 .4 0 .8.5.8s.5-.3.5-.8v-.4h1.1v.4c0 1.1-.5 1.8-1.6 1.8-1 0-1.6-.8-1.6-1.8v-2.7c0-1 .7-1.8 1.7-1.8s1.5.7 1.5 1.8v1.6z" fill="#fff"/></svg>