<?xml version="1.0" encoding="utf-8"?>
<!-- Generator: Adobe Illustrator 22.1.0, SVG Export Plug-In . SVG Version: 6.00 Build 0)  -->
<svg version="1.1" id="Layer_1" xmlns="http://www.w3.org/2000/svg" xmlns:xlink="http://www.w3.org/1999/xlink" x="0px" y="0px"
	 viewBox="0 0 24 24" style="enable-background:new 0 0 24 24;" xml:space="preserve">
<style type="text/css">
	.st0{fill:#FFFFFF;}
</style>
<g>
	<path class="st0" d="M5.4,1h1.3l0.9,3.4L8.4,1h1.3L8.2,6v3.4H6.9V6L5.4,1z M11.3,3.2c-1,0-1.7,0.7-1.7,1.7v3.1
		c0,1.1,0.6,1.7,1.7,1.7C12.2,9.6,13,9,13,7.9V4.9C13,3.9,12.2,3.2,11.3,3.2z M11.8,7.9c0,0.3-0.2,0.6-0.5,0.6
		c-0.3,0-0.5-0.3-0.5-0.6V5c0-0.3,0.2-0.6,0.5-0.6c0.4,0,0.5,0.2,0.5,0.6V7.9z M16.1,3.2V8c-0.1,0.2-0.4,0.5-0.7,0.5
		c-0.2,0-0.3-0.2-0.3-0.4V3.2h-1.1v5.2c0,0.6,0.2,1.1,0.8,1.1c0.3,0,0.8-0.2,1.3-0.8v0.7h1.1V3.2C17.2,3.2,16.1,3.2,16.1,3.2z
		 M18,15.9c-0.4,0-0.5,0.3-0.5,0.7v0.6h1v-0.6C18.5,16.2,18.4,15.9,18,15.9z M13.8,16c-0.1,0-0.1,0.1-0.2,0.2v3.7
		c0.1,0.1,0.2,0.2,0.3,0.2c0.2,0.1,0.4,0.1,0.6-0.1c0.1-0.1,0.1-0.2,0.1-0.4v-3.1c0-0.2,0-0.4-0.1-0.5C14.2,15.9,14,15.9,13.8,16z
		 M18.1,11.2c-2.3-0.2-10-0.2-12.3,0C3.3,11.4,3,12.9,3,17c0,4.1,0.3,5.7,2.8,5.8c2.3,0.2,10,0.2,12.3,0c2.5-0.2,2.8-1.7,2.9-5.8
		C21,12.9,20.7,11.4,18.1,11.2z M7.1,21H5.8v-6.9H4.6v-1.2h3.8v1.2H7.1L7.1,21L7.1,21z M11.4,21h-1.1v-0.7c-0.2,0.2-0.4,0.4-0.6,0.6
		c-0.6,0.3-1.4,0.3-1.4-0.9v-5h1.1v4.6c0,0.2,0.1,0.4,0.3,0.4c0.2,0,0.5-0.3,0.6-0.4V15h1.1L11.4,21L11.4,21z M15.6,19.8
		c0,0.7-0.3,1.3-1,1.3c-0.4,0-0.7-0.1-1-0.5V21h-1.1v-8.1h1.1v2.6c0.2-0.3,0.6-0.6,1-0.6c0.8,0,1.1,0.7,1.1,1.5L15.6,19.8L15.6,19.8
		z M19.6,18.2h-2.1v1.1c0,0.4,0,0.8,0.5,0.8c0.5,0,0.5-0.3,0.5-0.8v-0.4h1.1v0.4c0,1.1-0.5,1.8-1.6,1.8c-1,0-1.6-0.8-1.6-1.8v-2.7
		c0-1,0.7-1.8,1.7-1.8c1,0,1.5,0.7,1.5,1.8L19.6,18.2L19.6,18.2z"/>
</g>
</svg>
